<?xml version="1.0" standalone="no"?>
<!DOCTYPE svg PUBLIC "-//W3C//DTD SVG 20010904//EN"
 "http://www.w3.org/TR/2001/REC-SVG-20010904/DTD/svg10.dtd">
<svg version="1.0" xmlns="http://www.w3.org/2000/svg"
 width="512.000000pt" height="512.000000pt" viewBox="0 0 512.000000 512.000000"
 preserveAspectRatio="xMidYMid meet">

<g transform="translate(0.000000,512.000000) scale(0.100000,-0.100000)"
fill="#000000" stroke="none">
<path d="M2355 5110 c-786 -67 -1487 -480 -1920 -1130 -229 -343 -359 -692
-416 -1120 -19 -139 -16 -478 5 -630 64 -470 250 -905 541 -1270 103 -128 315
-334 446 -432 500 -375 1074 -551 1691 -517 815 44 1546 467 1998 1154 120
183 241 441 303 645 137 452 147 957 26 1409 -243 915 -983 1628 -1905 1835
-227 52 -548 75 -769 56z m-361 -926 c14 -13 16 -55 16 -300 l0 -284 930 0
c917 0 930 0 950 -20 18 -18 20 -33 20 -180 0 -157 -1 -161 -25 -185 l-24 -25
-1106 0 -1106 0 -24 25 -25 24 0 286 0 285 -175 0 c-229 0 -215 -13 -215 195
0 142 2 157 20 175 19 19 33 20 384 20 318 0 367 -2 380 -16z m1900 -1146 c23
-33 23 -323 0 -356 l-15 -22 -1124 0 -1124 0 -15 22 c-13 18 -16 53 -16 178 0
125 3 160 16 178 l15 22 1124 0 1124 0 15 -22z m-3 -537 c17 -21 19 -41 19
-182 0 -146 -2 -161 -20 -179 -20 -20 -33 -20 -933 -20 -772 0 -916 2 -933 14
-17 13 -19 30 -22 175 -4 169 2 195 41 211 12 5 417 8 925 7 l904 -2 19 -24z
m-1455 -516 c51 -21 110 -81 134 -137 26 -61 25 -151 -4 -209 -44 -92 -148
-154 -244 -147 -141 11 -241 116 -242 253 0 92 37 160 123 225 50 38 161 45
233 15z m1053 -10 c185 -94 183 -359 -3 -458 -64 -33 -176 -31 -237 5 -103 61
-152 166 -128 276 36 169 215 255 368 177z m691 -665 c18 -18 20 -33 20 -187
0 -141 -3 -169 -17 -185 -15 -17 -79 -18 -1621 -18 -1480 0 -1607 1 -1624 17
-16 14 -18 34 -18 185 0 155 2 170 20 188 20 20 33 20 1620 20 1587 0 1600 0
1620 -20z"/>
</g>
</svg>
