<?xml version="1.0" standalone="no"?>
<!DOCTYPE svg PUBLIC "-//W3C//DTD SVG 20010904//EN"
 "http://www.w3.org/TR/2001/REC-SVG-20010904/DTD/svg10.dtd">
<svg version="1.0" xmlns="http://www.w3.org/2000/svg"
 width="512.000000pt" height="512.000000pt" viewBox="0 0 512.000000 512.000000"
 preserveAspectRatio="xMidYMid meet">

<g transform="translate(0.000000,512.000000) scale(0.100000,-0.100000)"
fill="#000000" stroke="none">
<path d="M1305 4935 l-25 -24 0 -466 c0 -265 4 -474 9 -484 5 -9 275 -194 600
-410 l591 -394 0 -59 0 -58 -135 0 c-131 0 -137 -1 -160 -25 -25 -24 -25 -27
-25 -193 l0 -169 -41 -12 c-23 -7 -83 -34 -134 -60 -297 -152 -523 -410 -633
-721 -52 -149 -66 -237 -66 -420 0 -183 14 -271 66 -420 68 -191 156 -330 307
-481 291 -293 684 -423 1088 -363 275 40 513 161 714 363 202 201 323 440 363
712 60 408 -69 797 -363 1090 -64 64 -141 129 -194 163 -88 58 -229 129 -279
141 l-28 7 0 170 c0 166 0 169 -25 193 -23 24 -29 25 -160 25 l-135 0 0 58 0
59 591 394 c325 216 595 401 600 410 5 10 9 219 9 484 l0 466 -25 24 -24 25
-1231 0 -1231 0 -24 -25z m775 -726 l0 -591 -27 18 c-16 9 -160 105 -320 212
l-293 195 0 379 0 378 320 0 320 0 0 -591z m800 -54 l0 -645 -160 -107 -160
-106 -160 106 -160 107 0 645 0 645 320 0 320 0 0 -645z m800 267 l0 -379
-292 -195 c-161 -107 -305 -203 -320 -212 l-28 -18 0 591 0 591 320 0 320 0 0
-378z m-880 -1632 l0 -91 -62 8 c-35 4 -115 8 -178 8 -63 0 -143 -4 -177 -8
l-63 -8 0 91 0 90 240 0 240 0 0 -90z m-63 -245 c490 -80 862 -462 933 -960
29 -209 -7 -428 -104 -630 -115 -239 -286 -410 -527 -524 -311 -148 -652 -147
-964 3 -637 306 -834 1113 -409 1679 248 330 663 498 1071 432z"/>
<path d="M2393 2386 c-204 -39 -366 -125 -513 -275 -129 -130 -212 -278 -257
-457 -24 -95 -24 -333 0 -428 25 -100 72 -210 125 -296 50 -81 189 -228 263
-278 82 -55 205 -112 306 -139 86 -24 116 -27 243 -27 119 0 160 4 230 22 187
51 309 121 445 257 137 137 216 276 262 461 24 95 24 333 0 428 -45 178 -125
322 -252 452 -134 137 -272 218 -454 265 -99 27 -298 34 -398 15z m372 -171
c150 -41 320 -150 413 -267 181 -229 228 -508 133 -782 -67 -190 -217 -356
-405 -446 -126 -60 -190 -74 -346 -74 -156 0 -220 14 -346 74 -275 132 -454
416 -454 720 0 384 284 722 662 790 73 13 271 4 343 -15z"/>
</g>
</svg>
