<?xml version="1.0" standalone="no"?>
<!DOCTYPE svg PUBLIC "-//W3C//DTD SVG 20010904//EN"
 "http://www.w3.org/TR/2001/REC-SVG-20010904/DTD/svg10.dtd">
<svg version="1.0" xmlns="http://www.w3.org/2000/svg"
 width="512.000000pt" height="512.000000pt" viewBox="0 0 512.000000 512.000000"
 preserveAspectRatio="xMidYMid meet">

<g transform="translate(0.000000,512.000000) scale(0.100000,-0.100000)"
fill="#000000" stroke="none">
<path d="M1618 4596 c-499 -200 -927 -375 -951 -389 -91 -53 -149 -143 -162
-247 -8 -70 11 -535 30 -750 120 -1287 548 -2144 1334 -2669 119 -79 331 -203
621 -363 47 -26 112 -20 169 16 23 15 124 73 224 128 217 120 365 213 494 310
526 397 868 946 1061 1704 101 395 152 784 173 1319 9 248 9 291 -5 344 -27
104 -85 175 -186 226 -110 56 -1833 735 -1863 735 -18 -1 -439 -164 -939 -364z
m1762 -296 c443 -177 831 -333 862 -347 l58 -26 -5 -96 c-3 -53 -7 -173 -10
-267 -3 -95 -12 -245 -20 -335 -91 -964 -362 -1656 -831 -2123 -176 -175 -324
-280 -657 -466 l-217 -121 -183 102 c-225 126 -339 196 -439 269 -443 324
-752 804 -927 1445 -104 379 -160 777 -181 1295 -12 307 -12 297 3 304 73 34
1725 693 1732 691 6 -1 372 -148 815 -325z"/>
</g>
</svg>
