<?xml version="1.0" standalone="no"?>
<!DOCTYPE svg PUBLIC "-//W3C//DTD SVG 20010904//EN"
 "http://www.w3.org/TR/2001/REC-SVG-20010904/DTD/svg10.dtd">
<svg version="1.0" xmlns="http://www.w3.org/2000/svg"
 width="512.000000pt" height="512.000000pt" viewBox="0 0 512.000000 512.000000"
 preserveAspectRatio="xMidYMid meet">

<g transform="translate(0.000000,512.000000) scale(0.100000,-0.100000)"
fill="#000000" stroke="none">
<path d="M117 4315 c-48 -17 -85 -50 -103 -92 -12 -27 -14 -274 -14 -1468 0
-1562 -3 -1471 56 -1527 47 -44 73 -48 292 -48 l207 -1 38 -80 c151 -319 595
-401 869 -160 54 48 112 131 136 196 l16 45 931 0 931 0 13 -37 c23 -65 100
-171 159 -219 111 -90 218 -128 362 -128 108 1 203 28 290 84 74 48 161 147
201 228 l34 72 222 0 c235 0 259 4 307 48 57 54 56 37 56 717 0 519 -2 631
-14 658 -8 18 -171 237 -363 487 -237 309 -359 461 -383 475 -33 19 -53 20
-417 23 l-383 3 0 287 c0 178 -4 302 -11 327 -14 50 -64 100 -114 114 -28 8
-514 11 -1660 11 -1346 -1 -1627 -3 -1658 -15z m3098 -1560 l0 -1230 -798 -3
-798 -2 -20 47 c-70 163 -227 291 -404 328 -88 18 -132 18 -217 0 -176 -37
-352 -179 -406 -327 l-17 -48 -107 0 -108 0 0 1228 c0 676 3 1232 7 1235 3 4
650 6 1437 5 l1431 -3 0 -1230z m1274 104 l291 -381 0 -479 0 -479 -122 0
-123 1 -38 80 c-88 186 -275 299 -492 299 -154 0 -278 -47 -384 -146 l-61 -56
0 771 0 771 319 0 319 0 291 -381z m-3299 -1319 c45 -23 64 -44 89 -100 58
-127 -16 -274 -149 -298 -97 -17 -182 19 -228 96 -22 38 -27 59 -27 113 0 55
5 73 30 114 60 97 180 129 285 75z m2918 -2 c78 -37 123 -141 102 -235 -20
-89 -77 -146 -163 -162 -91 -17 -170 14 -222 88 -27 39 -30 50 -30 121 0 71 3
82 30 121 66 94 174 120 283 67z"/>
</g>
</svg>
